Coordinates
version=1
nRows=32
nColumns=22
inDegrees=yes

Units are S.I. units (second, meters, Newtons, ...)
If the header above contains a line with 'inDegrees', this indicates whether rotational values are in degrees (yes) or radians (no).

endheader
time	pelvis_tilt	pelvis_list	pelvis_rotation	pelvis_tx	pelvis_ty	pelvis_tz	hip_flexion_r	hip_adduction_r	hip_rotation_r	knee_angle_r	ankle_angle_r	subtalar_angle_r	hip_flexion_l	hip_adduction_l	hip_rotation_l	knee_angle_l	ankle_angle_l	subtalar_angle_l	lumbar_extension	lumbar_bending	lumbar_rotation
      1.05000000	    -11.31093061	      1.92561326	    -21.33476154	     -1.41126926	      0.97747145	     -0.44419108	     20.82458177	      3.21738053	     -2.76741037	    -20.89143082	     17.94305893	     -4.95617827	     19.60429314	     -0.83162060	     -3.94450296	    -20.25142765	     19.51834388	     -2.53993877	      2.62084388	      2.59823913	      5.80107490
      1.06000000	    -11.22203075	      1.96545657	    -21.35547204	     -1.41126050	      0.97731419	     -0.44437073	     20.96936528	      3.15795226	     -2.64364328	    -21.30343355	     18.11882793	     -4.97665497	     19.66750549	     -0.74840071	     -3.92224257	    -20.51015444	     19.62293096	     -2.56982428	      2.48512272	      2.51591897	      5.83076304
      1.07000000	    -11.17191000	      2.05474295	    -21.40367004	     -1.41127718	      0.97703524	     -0.44448422	     21.20609494	      3.08476280	     -2.44067493	    -21.78333709	     18.34052787	     -4.99850078	     19.78562288	     -0.63808691	     -3.90274558	    -20.76611681	     19.68615861	     -2.62730344	      2.41383290	      2.39198484	      5.86202473
      1.08000000	    -11.09025634	      2.07305137	    -21.41962459	     -1.41123780	      0.97680648	     -0.44465236	     21.34944447	      3.05444450	     -2.29444586	    -22.20018050	     18.52848066	     -5.02629667	     19.90678466	     -0.57135238	     -3.82494417	    -21.13798598	     19.80196237	     -2.67449136	      2.27083128	      2.33478283	      5.89227165
      1.09000000	    -11.11276648	      2.13024266	    -21.42697413	     -1.41126378	      0.97634807	     -0.44482151	     21.63604495	      3.03141401	     -2.11330317	    -22.66304422	     18.73363995	     -5.04400574	     20.17645284	     -0.50032623	     -3.70399941	    -21.55561990	     19.89940393	     -2.79617131	      2.25638780	      2.27331462	      5.91362002
      1.10000000	    -11.02290188	      2.07911999	    -21.42551204	     -1.41115098	      0.97609727	     -0.44496069	     21.71947452	      3.06046187	     -2.00495516	    -23.05009890	     18.96372537	     -5.07536215	     20.31239810	     -0.48877673	     -3.57233381	    -22.02189143	     20.06705332	     -2.84371054	      2.07161459	      2.28473892	      5.91984502
      1.11000000	    -11.07422840	      2.03489351	    -21.38077022	     -1.41109762	      0.97557673	     -0.44518254	     21.94488747	      3.12296047	     -1.92152239	    -23.43302521	     19.18592893	     -5.06941914	     20.64972103	     -0.50362728	     -3.34642249	    -22.58083615	     20.25489316	     -2.99227821	      2.04159318	      2.34743066	      5.89460910
      1.12000000	    -11.07525750	      1.95033623	    -21.34360027	     -1.41096089	      0.97513599	     -0.44537368	     22.07391159	      3.20268830	     -1.86166412	    -23.77032785	     19.45059389	     -5.05787347	     20.92877970	     -0.54082819	     -3.13623949	    -23.16327412	     20.46078707	     -3.10386159	      1.93870764	      2.43116136	      5.89076986
      1.13000000	    -11.09339070	      1.84132446	    -21.29776748	     -1.41077161	      0.97466001	     -0.44558153	     22.18868366	      3.30421066	     -1.83204869	    -24.07535981	     19.74386317	     -5.03106402	     21.23066741	     -0.60496939	     -2.92222771	    -23.77622902	     20.67984762	     -3.21117265	      1.84500676	      2.55107887	      5.89095451
      1.14000000	    -11.13185275	      1.71322161	    -21.24770500	     -1.41053228	      0.97414501	     -0.44579281	     22.29696725	      3.42549343	     -1.82540716	    -24.35237851	     20.06732696	     -4.98481735	     21.55259606	     -0.69633162	     -2.71171471	    -24.40680840	     20.91079614	     -3.30944843	      1.76671062	      2.69758537	      5.89560065
      1.15000000	    -11.17453779	      1.57161949	    -21.19945655	     -1.41021655	      0.97362306	     -0.44600052	     22.38321397	      3.55896617	     -1.82898984	    -24.60095901	     20.43066649	     -4.93110659	     21.86579650	     -0.80619436	     -2.52813026	    -25.03071153	     21.15340310	     -3.38077352	      1.69075353	      2.86225508	      5.91085258
      1.16000000	    -11.23317315	      1.42027413	    -21.15213430	     -1.40983617	      0.97307794	     -0.44622367	     22.46562770	      3.70335396	     -1.84080612	    -24.82697692	     20.82312024	     -4.86116997	     22.18288866	     -0.93593550	     -2.36943719	    -25.64559863	     21.40175482	     -3.42428678	      1.62892623	      3.04504563	      5.93233708
      1.17000000	    -11.30029781	      1.26441805	    -21.11424733	     -1.40939666	      0.97252110	     -0.44641951	     22.54291200	      3.85902477	     -1.84716001	    -25.03952751	     21.24312210	     -4.78383768	     22.49158754	     -1.08271824	     -2.24343453	    -26.24122582	     21.65901447	     -3.43639709	      1.57486959	      3.23422946	      5.95772018
      1.18000000	    -11.38162508	      1.10785352	    -21.08512280	     -1.40890539	      0.97194097	     -0.44660005	     22.62778657	      4.02369838	     -1.84552579	    -25.24605704	     21.68227640	     -4.69824356	     22.80106762	     -1.24510273	     -2.15335292	    -26.82029541	     21.92102973	     -3.41921450	      1.53420279	      3.42815732	      5.98845440
      1.19000000	    -11.49534461	      0.96088507	    -21.06542224	     -1.40837942	      0.97130306	     -0.44676137	     22.75396494	      4.19312310	     -1.85054027	    -25.46570502	     22.12742405	     -4.57708752	     23.13790176	     -1.42112920	     -2.10332680	    -27.38966398	     22.15993913	     -3.35704175	      1.53029888	      3.62174472	      6.02727773
      1.20000000	    -11.59422857	      0.81631403	    -21.06555191	     -1.40778023	      0.97068752	     -0.44688442	     22.86147506	      4.36844621	     -1.80756167	    -25.68520434	     22.56930304	     -4.49299316	     23.43323134	     -1.59969235	     -2.09048079	    -27.92260219	     22.43326882	     -3.28845148	      1.50616404	      3.80721720	      6.06492442
      1.21000000	    -11.68166701	      0.67626723	    -21.08913989	     -1.40710564	      0.97009574	     -0.44695522	     22.95631958	      4.54904608	     -1.72535462	    -25.90893898	     22.99197311	     -4.44338206	     23.68688509	     -1.78016778	     -2.10577707	    -28.41271736	     22.72974756	     -3.22657928	      1.46679510	      3.98001710	      6.10256062
      1.22000000	    -11.77193281	      0.55323777	    -21.12502461	     -1.40634673	      0.96950374	     -0.44699246	     23.06009897	      4.71945295	     -1.63511599	    -26.14159951	     23.40073641	     -4.39558330	     23.92531125	     -1.95248377	     -2.15257574	    -28.87420808	     23.01397039	     -3.14408773	      1.43441260	      4.13073542	      6.14607838
      1.23000000	    -11.79236954	      0.45150454	    -21.16565905	     -1.40543502	      0.96903587	     -0.44702573	     23.09739355	      4.83697604	     -1.56920150	    -26.38220878	     23.83695877	     -4.41754819	     24.05177823	     -2.07401779	     -2.21346773	    -29.26224545	     23.26416127	     -3.12540130	      1.33180442	      4.22701820	      6.17417304
      1.24000000	    -11.90445614	      0.34591051	    -21.22698749	     -1.40451492	      0.96845295	     -0.44698088	     23.20544169	      5.01773181	     -1.41469168	    -26.59079508	     24.16983284	     -4.35722752	     24.26724498	     -2.24577970	     -2.28193069	    -29.66206674	     23.59806167	     -2.99845519	      1.32396733	      4.35676216	      6.22651518
      1.25000000	    -11.96400874	      0.26597779	    -21.27165703	     -1.40345301	      0.96796492	     -0.44697480	     23.26413850	      5.13559897	     -1.30933732	    -26.80301135	     24.55365764	     -4.34081031	     24.39695573	     -2.35506691	     -2.32528930	    -29.99477056	     23.90592297	     -2.91312933	      1.26438729	      4.43306119	      6.24659145
      1.26000000	    -11.99474599	      0.19739579	    -21.30348441	     -1.40228383	      0.96754747	     -0.44698025	     23.28553440	      5.21901336	     -1.24124557	    -27.00289402	     24.94649808	     -4.36767065	     24.46971194	     -2.42762829	     -2.34039055	    -30.27750176	     24.19500377	     -2.89671292	      1.17062237	      4.47658183	      6.24327895
      1.27000000	    -12.04777972	      0.13175264	    -21.33185548	     -1.40105014	      0.96713084	     -0.44696083	     23.31173721	      5.30780017	     -1.16312459	    -27.17710857	     25.31296360	     -4.38450920	     24.54339911	     -2.49800429	     -2.32858683	    -30.52790955	     24.51347866	     -2.87593183	      1.09527505	      4.51663069	      6.23298418
      1.28000000	    -12.11353986	      0.07549945	    -21.35334160	     -1.39972878	      0.96673135	     -0.44693528	     23.33610734	      5.38401949	     -1.10352022	    -27.32835672	     25.66481544	     -4.39308033	     24.60980403	     -2.55232883	     -2.29360931	    -30.74443522	     24.83285737	     -2.85719813	      1.03208679	      4.54454164	      6.20938479
      1.29000000	    -12.18310698	      0.03070210	    -21.36465164	     -1.39829806	      0.96636654	     -0.44690429	     23.35117250	      5.43971069	     -1.06566353	    -27.46027018	     26.01038530	     -4.39600664	     24.65425370	     -2.58458406	     -2.23815160	    -30.91624855	     25.14873072	     -2.85042134	      0.97569763	      4.55376163	      6.17077388
      1.30000000	    -12.25144303	     -0.00109705	    -21.36704339	     -1.39675487	      0.96604394	     -0.44686456	     23.35187640	      5.47168223	     -1.05066175	    -27.57182272	     26.34731770	     -4.38869588	     24.67105655	     -2.59197570	     -2.16567064	    -31.04155346	     25.45742143	     -2.86108289	      0.92034679	      4.53983360	      6.11772891
      1.31000000	    -12.30411900	     -0.02216558	    -21.34373829	     -1.39508741	      0.96578071	     -0.44685999	     23.32961619	      5.46460463	     -1.09217319	    -27.67423343	     26.68918195	     -4.29935419	     24.64603498	     -2.56136812	     -2.05541294	    -31.11833587	     25.74306674	     -2.92582725	      0.84735122	      4.50086518	      6.02842944
      1.32000000	    -12.34228204	     -0.02657168	    -21.33083941	     -1.39331205	      0.96556853	     -0.44680178	     23.28465861	      5.43954014	     -1.11480046	    -27.76384343	     27.02059061	     -4.26159187	     24.57430766	     -2.51197066	     -1.96517611	    -31.14112142	     26.02695787	     -2.99991077	      0.76189828	      4.42673562	      5.95691666
      1.33000000	    -12.37065346	     -0.01784610	    -21.30300095	     -1.39143205	      0.96538485	     -0.44674165	     23.22512033	      5.38716060	     -1.15960553	    -27.84560820	     27.34154095	     -4.21449282	     24.47356405	     -2.43507345	     -1.85617832	    -31.12863199	     26.29694888	     -3.08397899	      0.66595710	      4.32398435	      5.87271427
      1.34000000	    -12.39388127	      0.00821859	    -21.26665863	     -1.38945223	      0.96520267	     -0.44666632	     23.16366468	      5.30859853	     -1.21588406	    -27.93143669	     27.65301905	     -4.15070857	     24.35245843	     -2.33296317	     -1.73882074	    -31.08674577	     26.55626849	     -3.16846407	      0.56825255	      4.18937827	      5.78627671
      1.35000000	    -12.40304840	      0.05959168	    -21.22165263	     -1.38741974	      0.96501944	     -0.44659148	     23.10659336	      5.19421287	     -1.27168973	    -28.03661461	     27.94826362	     -4.03251928	     24.21055439	     -2.19229293	     -1.60216200	    -31.01996901	     26.78679062	     -3.26995725	      0.44771338	      4.01181342	      5.69723417
      1.36000000	    -12.43137240	      0.13616465	    -21.17965993	     -1.38529932	      0.96475331	     -0.44649015	     23.10280882	      5.05421749	     -1.36051266	    -28.19413984	     28.24451654	     -3.95581639	     24.07919496	     -2.03893367	     -1.49126897	    -30.93078450	     27.02005593	     -3.32733231	      0.35756517	      3.81120020	      5.61145202
